# This file uses centimeters as units for non-parametric coordinates.

mtllib test.mtl
g default
v -5.000000 5.000000 5.000000
v 5.000000 5.000000 5.000000
v -5.000000 5.000000 -5.000000
v 5.000000 5.000000 -5.000000
v -5.000000 5.000000 0.000000
v 0.000000 5.000000 5.000000
v 5.000000 5.000000 0.000000
v 0.000000 5.000000 -5.000000
v 0.000000 5.000000 0.000000
v 2.500000 5.000000 -5.000000
v 0.000000 5.000000 -2.500000
v -2.500000 5.000000 -5.000000
v -5.000000 5.000000 -2.500000
v -2.500000 5.000000 5.000000
v 0.000000 5.000000 2.500000
v -2.500000 5.000000 0.000000
v -5.000000 5.000000 2.500000
v 2.500000 5.000000 5.000000
v 5.000000 5.000000 2.500000
v 2.500000 5.000000 0.000000
v 5.000000 5.000000 -2.500000
v -2.500000 5.000000 2.500000
v 2.500000 5.000000 2.500000
v 2.500000 5.000000 -2.500000
v -2.500000 5.000000 -2.500000
vt 0.375000 0.250000
vt 0.625000 0.250000
vt 0.375000 0.500000
vt 0.625000 0.500000
vt 0.375000 0.375000
vt 0.500000 0.250000
vt 0.625000 0.375000
vt 0.500000 0.500000
vt 0.500000 0.375000
vt 0.437500 0.312500
vt 0.562500 0.312500
vt 0.562500 0.437500
vt 0.437500 0.437500
vt 0.437500 0.250000
vt 0.500000 0.312500
vt 0.437500 0.375000
vt 0.375000 0.312500
vt 0.562500 0.250000
vt 0.625000 0.312500
vt 0.562500 0.375000
vt 0.625000 0.437500
vt 0.562500 0.500000
vt 0.500000 0.437500
vt 0.437500 0.500000
vt 0.375000 0.437500
vn 0.000000 1.000000 0.000000
vn 0.000000 1.000000 0.000000
vn 0.000000 1.000000 0.000000
vn 0.000000 1.000000 0.000000
vn 0.000000 1.000000 0.000000
vn 0.000000 1.000000 0.000000
vn 0.000000 1.000000 0.000000
vn 0.000000 1.000000 0.000000
vn 0.000000 1.000000 0.000000
vn 0.000000 1.000000 0.000000
vn 0.000000 1.000000 0.000000
vn 0.000000 1.000000 0.000000
vn 0.000000 1.000000 0.000000
vn 0.000000 1.000000 0.000000
vn 0.000000 1.000000 0.000000
vn 0.000000 1.000000 0.000000
vn 0.000000 1.000000 0.000000
vn 0.000000 1.000000 0.000000
vn 0.000000 1.000000 0.000000
vn 0.000000 1.000000 0.000000
vn 0.000000 1.000000 0.000000
vn 0.000000 1.000000 0.000000
vn 0.000000 1.000000 0.000000
vn 0.000000 1.000000 0.000000
vn 0.000000 1.000000 0.000000
s 1
g pCube1
usemtl initialShadingGroup
f 1/1/1 14/14/2 17/17/3
f 17/17/3 14/14/2 22/10/4
f 14/14/2 6/6/5 22/10/4
f 22/10/4 6/6/5 15/15/6
f 22/10/4 15/15/6 16/16/7
f 16/16/7 15/15/6 9/9/8
f 17/17/3 22/10/4 5/5/9
f 5/5/9 22/10/4 16/16/7
f 6/6/5 18/18/10 15/15/6
f 15/15/6 18/18/10 23/11/11
f 18/18/10 2/2/12 23/11/11
f 23/11/11 2/2/12 19/19/13
f 23/11/11 19/19/13 20/20/14
f 20/20/14 19/19/13 7/7/15
f 15/15/6 23/11/11 9/9/8
f 9/9/8 23/11/11 20/20/14
f 9/9/8 20/20/14 11/23/16
f 11/23/16 20/20/14 24/12/17
f 20/20/14 7/7/15 24/12/17
f 24/12/17 7/7/15 21/21/18
f 24/12/17 21/21/18 10/22/19
f 10/22/19 21/21/18 4/4/20
f 11/23/16 24/12/17 8/8/21
f 8/8/21 24/12/17 10/22/19
f 5/5/9 16/16/7 13/25/22
f 13/25/22 16/16/7 25/13/23
f 16/16/7 9/9/8 25/13/23
f 25/13/23 9/9/8 11/23/16
f 25/13/23 11/23/16 12/24/24
f 12/24/24 11/23/16 8/8/21
f 13/25/22 25/13/23 3/3/25
f 3/3/25 25/13/23 12/24/24
