# This file uses centimeters as units for non-parametric coordinates.

mtllib disk.mtl
g default
v -0.389711 -0.225000 0.000000
v 0.389711 -0.225000 0.000000
v -0.000000 0.450000 0.000000
v 0.000000 -0.450000 0.000000
v 0.389711 0.225000 0.000000
v -0.389711 0.225000 0.000000
v -0.000000 0.000000 0.000000
v -0.450000 -0.000000 0.000000
v -0.225000 -0.389711 0.000000
v 0.000000 -0.225000 0.000000
v -0.194856 0.112500 0.000000
v -0.194856 -0.112500 0.000000
v 0.225000 -0.389711 0.000000
v 0.450000 0.000000 0.000000
v 0.194856 0.112500 0.000000
v 0.194856 -0.112500 0.000000
v 0.225000 0.389711 0.000000
v -0.225000 0.389711 0.000000
v -0.000000 0.225000 0.000000
vt 0.066987 0.250000
vt 0.933013 0.250000
vt 0.500000 1.000000
vt 0.500000 0.000000
vt 0.933013 0.750000
vt 0.066987 0.750000
vt 0.500000 0.500000
vt 0.000000 0.500000
vt 0.250000 0.066987
vt 0.500000 0.250000
vt 0.283494 0.625000
vt 0.283494 0.375000
vt 0.750000 0.066987
vt 1.000000 0.500000
vt 0.716506 0.625000
vt 0.716506 0.375000
vt 0.750000 0.933013
vt 0.250000 0.933013
vt 0.500000 0.750000
vn 0.000000 0.000000 1.000000
vn 0.000000 0.000000 1.000000
vn 0.000000 0.000000 1.000000
vn 0.000000 0.000000 1.000000
vn 0.000000 0.000000 1.000000
vn 0.000000 0.000000 1.000000
vn 0.000000 0.000000 1.000000
vn 0.000000 0.000000 1.000000
vn 0.000000 0.000000 1.000000
vn 0.000000 0.000000 1.000000
vn 0.000000 0.000000 1.000000
vn 0.000000 0.000000 1.000000
vn 0.000000 0.000000 1.000000
vn 0.000000 0.000000 1.000000
vn 0.000000 0.000000 1.000000
vn 0.000000 0.000000 1.000000
vn 0.000000 0.000000 1.000000
vn 0.000000 0.000000 1.000000
vn 0.000000 0.000000 1.000000
s 1
g pDisc1
usemtl initialShadingGroup
f 6/6/1 8/8/2 11/11/3
f 11/11/3 8/8/2 12/12/4
f 8/8/2 1/1/5 12/12/4
f 12/12/4 1/1/5 9/9/6
f 4/4/7 10/10/8 9/9/6
f 9/9/6 10/10/8 12/12/4
f 10/10/8 7/7/9 12/12/4
f 12/12/4 7/7/9 11/11/3
f 4/4/7 13/13/10 10/10/8
f 10/10/8 13/13/10 16/16/11
f 13/13/10 2/2/12 16/16/11
f 16/16/11 2/2/12 14/14/13
f 5/5/14 15/15/15 14/14/13
f 14/14/13 15/15/15 16/16/11
f 15/15/15 7/7/9 16/16/11
f 16/16/11 7/7/9 10/10/8
f 5/5/14 17/17/16 15/15/15
f 15/15/15 17/17/16 19/19/17
f 17/17/16 3/3/18 19/19/17
f 19/19/17 3/3/18 18/18/19
f 6/6/1 11/11/3 18/18/19
f 18/18/19 11/11/3 19/19/17
f 11/11/3 7/7/9 19/19/17
f 19/19/17 7/7/9 15/15/15
